<?xml version="1.0" encoding="UTF-8" standalone="no"?>
<!DOCTYPE svg PUBLIC "-//W3C//DTD SVG 1.1//EN"
 "http://www.w3.org/Graphics/SVG/1.1/DTD/svg11.dtd">
<!-- Generated by graphviz version 9.0.0 (20230911.1827)
 -->
<!-- Title: structs Pages: 1 -->
<svg width="866pt" height="290pt"
 viewBox="0.00 0.00 866.07 289.50" xmlns="http://www.w3.org/2000/svg" xmlns:xlink="http://www.w3.org/1999/xlink">
<g id="graph0" class="graph" transform="scale(1 1) rotate(0) translate(4 285.5)">
<title>structs</title>
<polygon fill="white" stroke="none" points="-4,4 -4,-285.5 862.07,-285.5 862.07,4 -4,4"/>
<!-- node8 -->
<g id="node1" class="node">
<title>node8</title>
<polygon fill="none" stroke="black" points="0,-52.75 0,-101.75 76.75,-101.75 76.75,-52.75 0,-52.75"/>
<text text-anchor="middle" x="38.38" y="-84.45" font-family="Times,serif" font-size="14.00">value: 0.00</text>
<polyline fill="none" stroke="black" points="0,-77.25 76.75,-77.25"/>
<text text-anchor="middle" x="38.38" y="-59.95" font-family="Times,serif" font-size="14.00">grad: 1.00</text>
</g>
<!-- node8_op -->
<g id="node2" class="node">
<title>node8_op</title>
<ellipse fill="none" stroke="black" cx="139.53" cy="-77.25" rx="26.78" ry="26.78"/>
<text text-anchor="middle" x="139.53" y="-72.2" font-family="Times,serif" font-size="14.00">pow</text>
</g>
<!-- node8&#45;&gt;node8_op -->
<g id="edge1" class="edge">
<title>node8&#45;&gt;node8_op</title>
<path fill="none" stroke="black" d="M77.15,-77.25C84.92,-77.25 93.11,-77.25 100.89,-77.25"/>
<polygon fill="black" stroke="black" points="100.74,-80.75 110.74,-77.25 100.74,-73.75 100.74,-80.75"/>
</g>
<!-- node6 -->
<g id="node3" class="node">
<title>node6</title>
<polygon fill="none" stroke="black" points="202.32,-92.75 202.32,-141.75 283.57,-141.75 283.57,-92.75 202.32,-92.75"/>
<text text-anchor="middle" x="242.94" y="-124.45" font-family="Times,serif" font-size="14.00">value: &#45;0.00</text>
<polyline fill="none" stroke="black" points="202.32,-117.25 283.57,-117.25"/>
<text text-anchor="middle" x="242.94" y="-99.95" font-family="Times,serif" font-size="14.00">grad: &#45;0.00</text>
</g>
<!-- node8_op&#45;&gt;node6 -->
<g id="edge2" class="edge">
<title>node8_op&#45;&gt;node6</title>
<path fill="none" stroke="black" d="M164.82,-86.83C172.91,-90.02 182.25,-93.7 191.57,-97.38"/>
<polygon fill="black" stroke="black" points="190.02,-100.53 200.61,-100.94 192.59,-94.02 190.02,-100.53"/>
</g>
<!-- node7 -->
<g id="node4" class="node">
<title>node7</title>
<polygon fill="none" stroke="black" points="204.57,-0.5 204.57,-74 281.32,-74 281.32,-0.5 204.57,-0.5"/>
<text text-anchor="middle" x="242.94" y="-56.7" font-family="Times,serif" font-size="14.00"> </text>
<polyline fill="none" stroke="black" points="204.57,-49.5 281.32,-49.5"/>
<text text-anchor="middle" x="242.94" y="-32.2" font-family="Times,serif" font-size="14.00">value: 2.00</text>
<polyline fill="none" stroke="black" points="204.57,-25 281.32,-25"/>
<text text-anchor="middle" x="242.94" y="-7.7" font-family="Times,serif" font-size="14.00">grad: 0.00</text>
</g>
<!-- node8_op&#45;&gt;node7 -->
<g id="edge3" class="edge">
<title>node8_op&#45;&gt;node7</title>
<path fill="none" stroke="black" d="M164.82,-67.67C173.61,-64.2 183.86,-60.16 193.97,-56.17"/>
<polygon fill="black" stroke="black" points="194.96,-59.55 202.97,-52.62 192.39,-53.03 194.96,-59.55"/>
</g>
<!-- node6_op -->
<g id="node5" class="node">
<title>node6_op</title>
<ellipse fill="none" stroke="black" cx="337.57" cy="-117.25" rx="18" ry="18"/>
<text text-anchor="middle" x="337.57" y="-112.2" font-family="Times,serif" font-size="14.00">&#45;</text>
</g>
<!-- node6&#45;&gt;node6_op -->
<g id="edge4" class="edge">
<title>node6&#45;&gt;node6_op</title>
<path fill="none" stroke="black" d="M284.03,-117.25C292.02,-117.25 300.26,-117.25 307.78,-117.25"/>
<polygon fill="black" stroke="black" points="307.7,-120.75 317.7,-117.25 307.7,-113.75 307.7,-120.75"/>
</g>
<!-- node5 -->
<g id="node6" class="node">
<title>node5</title>
<polygon fill="none" stroke="black" points="391.57,-132.75 391.57,-181.75 475.07,-181.75 475.07,-132.75 391.57,-132.75"/>
<text text-anchor="middle" x="433.32" y="-164.45" font-family="Times,serif" font-size="14.00">value: 35.00</text>
<polyline fill="none" stroke="black" points="391.57,-157.25 475.07,-157.25"/>
<text text-anchor="middle" x="433.32" y="-139.95" font-family="Times,serif" font-size="14.00">grad: &#45;0.00</text>
</g>
<!-- node6_op&#45;&gt;node5 -->
<g id="edge5" class="edge">
<title>node6_op&#45;&gt;node5</title>
<path fill="none" stroke="black" d="M354.47,-124.04C361.92,-127.21 371.24,-131.19 380.83,-135.28"/>
<polygon fill="black" stroke="black" points="379.3,-138.43 389.87,-139.14 382.04,-131.99 379.3,-138.43"/>
</g>
<!-- node3 -->
<g id="node7" class="node">
<title>node3</title>
<polygon fill="none" stroke="black" points="391.57,-40.5 391.57,-114 475.07,-114 475.07,-40.5 391.57,-40.5"/>
<text text-anchor="middle" x="433.32" y="-96.7" font-family="Times,serif" font-size="14.00">y_hat</text>
<polyline fill="none" stroke="black" points="391.57,-89.5 475.07,-89.5"/>
<text text-anchor="middle" x="433.32" y="-72.2" font-family="Times,serif" font-size="14.00">value: 35.00</text>
<polyline fill="none" stroke="black" points="391.57,-65 475.07,-65"/>
<text text-anchor="middle" x="433.32" y="-47.7" font-family="Times,serif" font-size="14.00">grad: &#45;0.00</text>
</g>
<!-- node6_op&#45;&gt;node3 -->
<g id="edge6" class="edge">
<title>node6_op&#45;&gt;node3</title>
<path fill="none" stroke="black" d="M354.47,-110.46C361.92,-107.29 371.24,-103.31 380.83,-99.22"/>
<polygon fill="black" stroke="black" points="382.04,-102.51 389.87,-95.36 379.3,-96.07 382.04,-102.51"/>
</g>
<!-- node5_op -->
<g id="node8" class="node">
<title>node5_op</title>
<ellipse fill="none" stroke="black" cx="529.07" cy="-157.25" rx="18" ry="18"/>
<text text-anchor="middle" x="529.07" y="-152.2" font-family="Times,serif" font-size="14.00">+</text>
</g>
<!-- node5&#45;&gt;node5_op -->
<g id="edge7" class="edge">
<title>node5&#45;&gt;node5_op</title>
<path fill="none" stroke="black" d="M475.44,-157.25C483.48,-157.25 491.75,-157.25 499.28,-157.25"/>
<polygon fill="black" stroke="black" points="499.22,-160.75 509.22,-157.25 499.22,-153.75 499.22,-160.75"/>
</g>
<!-- node4 -->
<g id="node9" class="node">
<title>node4</title>
<polygon fill="none" stroke="black" points="583.07,-172.75 583.07,-221.75 666.57,-221.75 666.57,-172.75 583.07,-172.75"/>
<text text-anchor="middle" x="624.82" y="-204.45" font-family="Times,serif" font-size="14.00">value: 40.00</text>
<polyline fill="none" stroke="black" points="583.07,-197.25 666.57,-197.25"/>
<text text-anchor="middle" x="624.82" y="-179.95" font-family="Times,serif" font-size="14.00">grad: &#45;0.00</text>
</g>
<!-- node5_op&#45;&gt;node4 -->
<g id="edge8" class="edge">
<title>node5_op&#45;&gt;node4</title>
<path fill="none" stroke="black" d="M545.97,-164.04C553.42,-167.21 562.74,-171.19 572.33,-175.28"/>
<polygon fill="black" stroke="black" points="570.8,-178.43 581.37,-179.14 573.54,-171.99 570.8,-178.43"/>
</g>
<!-- node1 -->
<g id="node10" class="node">
<title>node1</title>
<polygon fill="none" stroke="black" points="584.19,-80.5 584.19,-154 665.44,-154 665.44,-80.5 584.19,-80.5"/>
<text text-anchor="middle" x="624.82" y="-136.7" font-family="Times,serif" font-size="14.00">b</text>
<polyline fill="none" stroke="black" points="584.19,-129.5 665.44,-129.5"/>
<text text-anchor="middle" x="624.82" y="-112.2" font-family="Times,serif" font-size="14.00">value: &#45;5.00</text>
<polyline fill="none" stroke="black" points="584.19,-105 665.44,-105"/>
<text text-anchor="middle" x="624.82" y="-87.7" font-family="Times,serif" font-size="14.00">grad: &#45;0.00</text>
</g>
<!-- node5_op&#45;&gt;node1 -->
<g id="edge9" class="edge">
<title>node5_op&#45;&gt;node1</title>
<path fill="none" stroke="black" d="M545.97,-150.46C553.73,-147.16 563.53,-142.97 573.54,-138.7"/>
<polygon fill="black" stroke="black" points="574.75,-141.99 582.58,-134.85 572,-135.55 574.75,-141.99"/>
</g>
<!-- node4_op -->
<g id="node11" class="node">
<title>node4_op</title>
<ellipse fill="none" stroke="black" cx="720.57" cy="-197.25" rx="18" ry="18"/>
<text text-anchor="middle" x="720.57" y="-192.2" font-family="Times,serif" font-size="14.00">*</text>
</g>
<!-- node4&#45;&gt;node4_op -->
<g id="edge10" class="edge">
<title>node4&#45;&gt;node4_op</title>
<path fill="none" stroke="black" d="M666.94,-197.25C674.98,-197.25 683.25,-197.25 690.78,-197.25"/>
<polygon fill="black" stroke="black" points="690.72,-200.75 700.72,-197.25 690.72,-193.75 690.72,-200.75"/>
</g>
<!-- node2 -->
<g id="node12" class="node">
<title>node2</title>
<polygon fill="none" stroke="black" points="774.57,-207.5 774.57,-281 858.07,-281 858.07,-207.5 774.57,-207.5"/>
<text text-anchor="middle" x="816.32" y="-263.7" font-family="Times,serif" font-size="14.00">x</text>
<polyline fill="none" stroke="black" points="774.57,-256.5 858.07,-256.5"/>
<text text-anchor="middle" x="816.32" y="-239.2" font-family="Times,serif" font-size="14.00">value: 10.00</text>
<polyline fill="none" stroke="black" points="774.57,-232 858.07,-232"/>
<text text-anchor="middle" x="816.32" y="-214.7" font-family="Times,serif" font-size="14.00">grad: &#45;0.00</text>
</g>
<!-- node4_op&#45;&gt;node2 -->
<g id="edge11" class="edge">
<title>node4_op&#45;&gt;node2</title>
<path fill="none" stroke="black" d="M737.05,-205.01C744.62,-208.8 754.2,-213.61 764.05,-218.54"/>
<polygon fill="black" stroke="black" points="762.47,-221.67 772.97,-223.02 765.6,-215.41 762.47,-221.67"/>
</g>
<!-- node0 -->
<g id="node13" class="node">
<title>node0</title>
<polygon fill="none" stroke="black" points="777.94,-114.5 777.94,-188 854.69,-188 854.69,-114.5 777.94,-114.5"/>
<text text-anchor="middle" x="816.32" y="-170.7" font-family="Times,serif" font-size="14.00">w</text>
<polyline fill="none" stroke="black" points="777.94,-163.5 854.69,-163.5"/>
<text text-anchor="middle" x="816.32" y="-146.2" font-family="Times,serif" font-size="14.00">value: 4.00</text>
<polyline fill="none" stroke="black" points="777.94,-139 854.69,-139"/>
<text text-anchor="middle" x="816.32" y="-121.7" font-family="Times,serif" font-size="14.00">grad: &#45;0.00</text>
</g>
<!-- node4_op&#45;&gt;node0 -->
<g id="edge12" class="edge">
<title>node4_op&#45;&gt;node0</title>
<path fill="none" stroke="black" d="M737.05,-189.65C745.49,-185.51 756.45,-180.14 767.47,-174.73"/>
<polygon fill="black" stroke="black" points="768.76,-178 776.19,-170.45 765.67,-171.71 768.76,-178"/>
</g>
</g>
</svg>
