<?xml version="1.0" encoding="UTF-8" standalone="no"?>
<!DOCTYPE svg PUBLIC "-//W3C//DTD SVG 1.1//EN"
 "http://www.w3.org/Graphics/SVG/1.1/DTD/svg11.dtd">
<!-- Generated by graphviz version 9.0.0 (20230911.1827)
 -->
<!-- Title: structs Pages: 1 -->
<svg width="1244pt" height="388pt"
 viewBox="0.00 0.00 1244.07 387.50" xmlns="http://www.w3.org/2000/svg" xmlns:xlink="http://www.w3.org/1999/xlink">
<g id="graph0" class="graph" transform="scale(1 1) rotate(0) translate(4 383.5)">
<title>structs</title>
<polygon fill="white" stroke="none" points="-4,4 -4,-383.5 1240.07,-383.5 1240.07,4 -4,4"/>
<!-- node13 -->
<g id="node1" class="node">
<title>node13</title>
<polygon fill="none" stroke="black" points="0,-52.75 0,-101.75 76.75,-101.75 76.75,-52.75 0,-52.75"/>
<text text-anchor="middle" x="38.38" y="-84.45" font-family="Times,serif" font-size="14.00">value: 0.01</text>
<polyline fill="none" stroke="black" points="0,-77.25 76.75,-77.25"/>
<text text-anchor="middle" x="38.38" y="-59.95" font-family="Times,serif" font-size="14.00">grad: 1.00</text>
</g>
<!-- node13_op -->
<g id="node2" class="node">
<title>node13_op</title>
<ellipse fill="none" stroke="black" cx="139.53" cy="-77.25" rx="26.78" ry="26.78"/>
<text text-anchor="middle" x="139.53" y="-72.2" font-family="Times,serif" font-size="14.00">pow</text>
</g>
<!-- node13&#45;&gt;node13_op -->
<g id="edge1" class="edge">
<title>node13&#45;&gt;node13_op</title>
<path fill="none" stroke="black" d="M77.15,-77.25C84.92,-77.25 93.11,-77.25 100.89,-77.25"/>
<polygon fill="black" stroke="black" points="100.74,-80.75 110.74,-77.25 100.74,-73.75 100.74,-80.75"/>
</g>
<!-- node11 -->
<g id="node3" class="node">
<title>node11</title>
<polygon fill="none" stroke="black" points="202.32,-92.75 202.32,-141.75 283.57,-141.75 283.57,-92.75 202.32,-92.75"/>
<text text-anchor="middle" x="242.94" y="-124.45" font-family="Times,serif" font-size="14.00">value: &#45;0.12</text>
<polyline fill="none" stroke="black" points="202.32,-117.25 283.57,-117.25"/>
<text text-anchor="middle" x="242.94" y="-99.95" font-family="Times,serif" font-size="14.00">grad: &#45;0.23</text>
</g>
<!-- node13_op&#45;&gt;node11 -->
<g id="edge2" class="edge">
<title>node13_op&#45;&gt;node11</title>
<path fill="none" stroke="black" d="M164.82,-86.83C172.91,-90.02 182.25,-93.7 191.57,-97.38"/>
<polygon fill="black" stroke="black" points="190.02,-100.53 200.61,-100.94 192.59,-94.02 190.02,-100.53"/>
</g>
<!-- node12 -->
<g id="node4" class="node">
<title>node12</title>
<polygon fill="none" stroke="black" points="204.57,-0.5 204.57,-74 281.32,-74 281.32,-0.5 204.57,-0.5"/>
<text text-anchor="middle" x="242.94" y="-56.7" font-family="Times,serif" font-size="14.00"> </text>
<polyline fill="none" stroke="black" points="204.57,-49.5 281.32,-49.5"/>
<text text-anchor="middle" x="242.94" y="-32.2" font-family="Times,serif" font-size="14.00">value: 2.00</text>
<polyline fill="none" stroke="black" points="204.57,-25 281.32,-25"/>
<text text-anchor="middle" x="242.94" y="-7.7" font-family="Times,serif" font-size="14.00">grad: 0.00</text>
</g>
<!-- node13_op&#45;&gt;node12 -->
<g id="edge3" class="edge">
<title>node13_op&#45;&gt;node12</title>
<path fill="none" stroke="black" d="M164.82,-67.67C173.61,-64.2 183.86,-60.16 193.97,-56.17"/>
<polygon fill="black" stroke="black" points="194.96,-59.55 202.97,-52.62 192.39,-53.03 194.96,-59.55"/>
</g>
<!-- node11_op -->
<g id="node5" class="node">
<title>node11_op</title>
<ellipse fill="none" stroke="black" cx="337.57" cy="-117.25" rx="18" ry="18"/>
<text text-anchor="middle" x="337.57" y="-112.2" font-family="Times,serif" font-size="14.00">&#45;</text>
</g>
<!-- node11&#45;&gt;node11_op -->
<g id="edge4" class="edge">
<title>node11&#45;&gt;node11_op</title>
<path fill="none" stroke="black" d="M284.03,-117.25C292.02,-117.25 300.26,-117.25 307.78,-117.25"/>
<polygon fill="black" stroke="black" points="307.7,-120.75 317.7,-117.25 307.7,-113.75 307.7,-120.75"/>
</g>
<!-- node9 -->
<g id="node6" class="node">
<title>node9</title>
<polygon fill="none" stroke="black" points="391.57,-132.75 391.57,-181.75 468.32,-181.75 468.32,-132.75 391.57,-132.75"/>
<text text-anchor="middle" x="429.94" y="-164.45" font-family="Times,serif" font-size="14.00">value: 0.88</text>
<polyline fill="none" stroke="black" points="391.57,-157.25 468.32,-157.25"/>
<text text-anchor="middle" x="429.94" y="-139.95" font-family="Times,serif" font-size="14.00">grad: &#45;0.23</text>
</g>
<!-- node11_op&#45;&gt;node9 -->
<g id="edge5" class="edge">
<title>node11_op&#45;&gt;node9</title>
<path fill="none" stroke="black" d="M354.31,-124.22C361.81,-127.54 371.23,-131.71 380.83,-135.95"/>
<polygon fill="black" stroke="black" points="379.29,-139.1 389.85,-139.95 382.12,-132.7 379.29,-139.1"/>
</g>
<!-- node10 -->
<g id="node7" class="node">
<title>node10</title>
<polygon fill="none" stroke="black" points="391.57,-40.5 391.57,-114 468.32,-114 468.32,-40.5 391.57,-40.5"/>
<text text-anchor="middle" x="429.94" y="-96.7" font-family="Times,serif" font-size="14.00">y_hat</text>
<polyline fill="none" stroke="black" points="391.57,-89.5 468.32,-89.5"/>
<text text-anchor="middle" x="429.94" y="-72.2" font-family="Times,serif" font-size="14.00">value: 1.00</text>
<polyline fill="none" stroke="black" points="391.57,-65 468.32,-65"/>
<text text-anchor="middle" x="429.94" y="-47.7" font-family="Times,serif" font-size="14.00">grad: &#45;0.23</text>
</g>
<!-- node11_op&#45;&gt;node10 -->
<g id="edge6" class="edge">
<title>node11_op&#45;&gt;node10</title>
<path fill="none" stroke="black" d="M354.31,-110.28C361.81,-106.96 371.23,-102.79 380.83,-98.55"/>
<polygon fill="black" stroke="black" points="382.12,-101.8 389.85,-94.55 379.29,-95.4 382.12,-101.8"/>
</g>
<!-- node9_op -->
<g id="node8" class="node">
<title>node9_op</title>
<polygon fill="none" stroke="black" points="564.57,-187.38 504.32,-187.38 504.32,-127.12 564.57,-127.12 564.57,-187.38"/>
<text text-anchor="middle" x="534.44" y="-152.2" font-family="Times,serif" font-size="14.00">sigmoid</text>
</g>
<!-- node9&#45;&gt;node9_op -->
<g id="edge7" class="edge">
<title>node9&#45;&gt;node9_op</title>
<path fill="none" stroke="black" d="M468.53,-157.25C476.36,-157.25 484.65,-157.25 492.59,-157.25"/>
<polygon fill="black" stroke="black" points="492.37,-160.75 502.37,-157.25 492.37,-153.75 492.37,-160.75"/>
</g>
<!-- node8 -->
<g id="node9" class="node">
<title>node8</title>
<polygon fill="none" stroke="black" points="600.57,-132.75 600.57,-181.75 677.32,-181.75 677.32,-132.75 600.57,-132.75"/>
<text text-anchor="middle" x="638.94" y="-164.45" font-family="Times,serif" font-size="14.00">value: 2.03</text>
<polyline fill="none" stroke="black" points="600.57,-157.25 677.32,-157.25"/>
<text text-anchor="middle" x="638.94" y="-139.95" font-family="Times,serif" font-size="14.00">grad: &#45;0.02</text>
</g>
<!-- node9_op&#45;&gt;node8 -->
<g id="edge8" class="edge">
<title>node9_op&#45;&gt;node8</title>
<path fill="none" stroke="black" d="M564.82,-157.25C572.3,-157.25 580.54,-157.25 588.71,-157.25"/>
<polygon fill="black" stroke="black" points="588.63,-160.75 598.63,-157.25 588.63,-153.75 588.63,-160.75"/>
</g>
<!-- node8_op -->
<g id="node10" class="node">
<title>node8_op</title>
<ellipse fill="none" stroke="black" cx="731.32" cy="-157.25" rx="18" ry="18"/>
<text text-anchor="middle" x="731.32" y="-152.2" font-family="Times,serif" font-size="14.00">+</text>
</g>
<!-- node8&#45;&gt;node8_op -->
<g id="edge9" class="edge">
<title>node8&#45;&gt;node8_op</title>
<path fill="none" stroke="black" d="M677.75,-157.25C685.65,-157.25 693.87,-157.25 701.39,-157.25"/>
<polygon fill="black" stroke="black" points="701.33,-160.75 711.33,-157.25 701.33,-153.75 701.33,-160.75"/>
</g>
<!-- node7 -->
<g id="node11" class="node">
<title>node7</title>
<polygon fill="none" stroke="black" points="787.57,-172.75 787.57,-221.75 864.32,-221.75 864.32,-172.75 787.57,-172.75"/>
<text text-anchor="middle" x="825.94" y="-204.45" font-family="Times,serif" font-size="14.00">value: 9.72</text>
<polyline fill="none" stroke="black" points="787.57,-197.25 864.32,-197.25"/>
<text text-anchor="middle" x="825.94" y="-179.95" font-family="Times,serif" font-size="14.00">grad: &#45;0.02</text>
</g>
<!-- node8_op&#45;&gt;node7 -->
<g id="edge10" class="edge">
<title>node8_op&#45;&gt;node7</title>
<path fill="none" stroke="black" d="M748.45,-164.22C756.38,-167.64 766.39,-171.96 776.54,-176.35"/>
<polygon fill="black" stroke="black" points="775.12,-179.55 785.69,-180.3 777.9,-173.12 775.12,-179.55"/>
</g>
<!-- node4 -->
<g id="node12" class="node">
<title>node4</title>
<polygon fill="none" stroke="black" points="785.32,-80.5 785.32,-154 866.57,-154 866.57,-80.5 785.32,-80.5"/>
<text text-anchor="middle" x="825.94" y="-136.7" font-family="Times,serif" font-size="14.00">b</text>
<polyline fill="none" stroke="black" points="785.32,-129.5 866.57,-129.5"/>
<text text-anchor="middle" x="825.94" y="-112.2" font-family="Times,serif" font-size="14.00">value: &#45;7.69</text>
<polyline fill="none" stroke="black" points="785.32,-105 866.57,-105"/>
<text text-anchor="middle" x="825.94" y="-87.7" font-family="Times,serif" font-size="14.00">grad: &#45;0.02</text>
</g>
<!-- node8_op&#45;&gt;node4 -->
<g id="edge11" class="edge">
<title>node8_op&#45;&gt;node4</title>
<path fill="none" stroke="black" d="M748.45,-150.28C755.91,-147.06 765.22,-143.04 774.76,-138.92"/>
<polygon fill="black" stroke="black" points="775.93,-142.23 783.72,-135.05 773.15,-135.8 775.93,-142.23"/>
</g>
<!-- node7_op -->
<g id="node13" class="node">
<title>node7_op</title>
<ellipse fill="none" stroke="black" cx="920.57" cy="-197.25" rx="18" ry="18"/>
<text text-anchor="middle" x="920.57" y="-192.2" font-family="Times,serif" font-size="14.00">+</text>
</g>
<!-- node7&#45;&gt;node7_op -->
<g id="edge12" class="edge">
<title>node7&#45;&gt;node7_op</title>
<path fill="none" stroke="black" d="M864.62,-197.25C873.37,-197.25 882.54,-197.25 890.84,-197.25"/>
<polygon fill="black" stroke="black" points="890.69,-200.75 900.69,-197.25 890.69,-193.75 890.69,-200.75"/>
</g>
<!-- node5 -->
<g id="node14" class="node">
<title>node5</title>
<polygon fill="none" stroke="black" points="974.57,-218.75 974.57,-267.75 1051.32,-267.75 1051.32,-218.75 974.57,-218.75"/>
<text text-anchor="middle" x="1012.94" y="-250.45" font-family="Times,serif" font-size="14.00">value: 2.86</text>
<polyline fill="none" stroke="black" points="974.57,-243.25 1051.32,-243.25"/>
<text text-anchor="middle" x="1012.94" y="-225.95" font-family="Times,serif" font-size="14.00">grad: &#45;0.02</text>
</g>
<!-- node7_op&#45;&gt;node5 -->
<g id="edge13" class="edge">
<title>node7_op&#45;&gt;node5</title>
<path fill="none" stroke="black" d="M936.9,-205.05C944.52,-208.93 954.2,-213.86 964.05,-218.87"/>
<polygon fill="black" stroke="black" points="962.45,-221.99 972.95,-223.4 965.63,-215.75 962.45,-221.99"/>
</g>
<!-- node6 -->
<g id="node15" class="node">
<title>node6</title>
<polygon fill="none" stroke="black" points="974.57,-138.75 974.57,-187.75 1051.32,-187.75 1051.32,-138.75 974.57,-138.75"/>
<text text-anchor="middle" x="1012.94" y="-170.45" font-family="Times,serif" font-size="14.00">value: 6.85</text>
<polyline fill="none" stroke="black" points="974.57,-163.25 1051.32,-163.25"/>
<text text-anchor="middle" x="1012.94" y="-145.95" font-family="Times,serif" font-size="14.00">grad: &#45;0.02</text>
</g>
<!-- node7_op&#45;&gt;node6 -->
<g id="edge14" class="edge">
<title>node7_op&#45;&gt;node6</title>
<path fill="none" stroke="black" d="M937.73,-191.17C945.1,-188.4 954.27,-184.95 963.62,-181.43"/>
<polygon fill="black" stroke="black" points="964.62,-184.79 972.75,-178 962.16,-178.24 964.62,-184.79"/>
</g>
<!-- node5_op -->
<g id="node19" class="node">
<title>node5_op</title>
<ellipse fill="none" stroke="black" cx="1105.32" cy="-249.25" rx="18" ry="18"/>
<text text-anchor="middle" x="1105.32" y="-244.2" font-family="Times,serif" font-size="14.00">*</text>
</g>
<!-- node5&#45;&gt;node5_op -->
<g id="edge18" class="edge">
<title>node5&#45;&gt;node5_op</title>
<path fill="none" stroke="black" d="M1051.75,-245.76C1059.87,-246.3 1068.33,-246.86 1076.02,-247.37"/>
<polygon fill="black" stroke="black" points="1075.6,-250.85 1085.81,-248.02 1076.06,-243.87 1075.6,-250.85"/>
</g>
<!-- node6_op -->
<g id="node16" class="node">
<title>node6_op</title>
<ellipse fill="none" stroke="black" cx="1105.32" cy="-156.25" rx="18" ry="18"/>
<text text-anchor="middle" x="1105.32" y="-151.2" font-family="Times,serif" font-size="14.00">*</text>
</g>
<!-- node6&#45;&gt;node6_op -->
<g id="edge15" class="edge">
<title>node6&#45;&gt;node6_op</title>
<path fill="none" stroke="black" d="M1051.75,-160.32C1059.87,-159.69 1068.33,-159.04 1076.02,-158.44"/>
<polygon fill="black" stroke="black" points="1076.11,-161.95 1085.81,-157.68 1075.57,-154.97 1076.11,-161.95"/>
</g>
<!-- node3 -->
<g id="node17" class="node">
<title>node3</title>
<polygon fill="none" stroke="black" points="1159.32,-119.5 1159.32,-193 1236.07,-193 1236.07,-119.5 1159.32,-119.5"/>
<text text-anchor="middle" x="1197.69" y="-175.7" font-family="Times,serif" font-size="14.00">x2</text>
<polyline fill="none" stroke="black" points="1159.32,-168.5 1236.07,-168.5"/>
<text text-anchor="middle" x="1197.69" y="-151.2" font-family="Times,serif" font-size="14.00">value: 2.50</text>
<polyline fill="none" stroke="black" points="1159.32,-144 1236.07,-144"/>
<text text-anchor="middle" x="1197.69" y="-126.7" font-family="Times,serif" font-size="14.00">grad: &#45;0.07</text>
</g>
<!-- node6_op&#45;&gt;node3 -->
<g id="edge16" class="edge">
<title>node6_op&#45;&gt;node3</title>
<path fill="none" stroke="black" d="M1123.74,-156.25C1130.73,-156.25 1139.17,-156.25 1147.79,-156.25"/>
<polygon fill="black" stroke="black" points="1147.61,-159.75 1157.61,-156.25 1147.61,-152.75 1147.61,-159.75"/>
</g>
<!-- node2 -->
<g id="node18" class="node">
<title>node2</title>
<polygon fill="none" stroke="black" points="1159.32,-26.5 1159.32,-100 1236.07,-100 1236.07,-26.5 1159.32,-26.5"/>
<text text-anchor="middle" x="1197.69" y="-82.7" font-family="Times,serif" font-size="14.00">w2</text>
<polyline fill="none" stroke="black" points="1159.32,-75.5 1236.07,-75.5"/>
<text text-anchor="middle" x="1197.69" y="-58.2" font-family="Times,serif" font-size="14.00">value: 2.74</text>
<polyline fill="none" stroke="black" points="1159.32,-51 1236.07,-51"/>
<text text-anchor="middle" x="1197.69" y="-33.7" font-family="Times,serif" font-size="14.00">grad: &#45;0.06</text>
</g>
<!-- node6_op&#45;&gt;node2 -->
<g id="edge17" class="edge">
<title>node6_op&#45;&gt;node2</title>
<path fill="none" stroke="black" d="M1118.51,-143.71C1127.45,-134.51 1140.17,-121.42 1152.76,-108.46"/>
<polygon fill="black" stroke="black" points="1155.04,-111.14 1159.5,-101.53 1150.02,-106.26 1155.04,-111.14"/>
</g>
<!-- node1 -->
<g id="node20" class="node">
<title>node1</title>
<polygon fill="none" stroke="black" points="1159.32,-305.5 1159.32,-379 1236.07,-379 1236.07,-305.5 1159.32,-305.5"/>
<text text-anchor="middle" x="1197.69" y="-361.7" font-family="Times,serif" font-size="14.00">x1</text>
<polyline fill="none" stroke="black" points="1159.32,-354.5 1236.07,-354.5"/>
<text text-anchor="middle" x="1197.69" y="-337.2" font-family="Times,serif" font-size="14.00">value: 1.00</text>
<polyline fill="none" stroke="black" points="1159.32,-330 1236.07,-330"/>
<text text-anchor="middle" x="1197.69" y="-312.7" font-family="Times,serif" font-size="14.00">grad: &#45;0.07</text>
</g>
<!-- node5_op&#45;&gt;node1 -->
<g id="edge19" class="edge">
<title>node5_op&#45;&gt;node1</title>
<path fill="none" stroke="black" d="M1118.51,-261.79C1127.45,-270.99 1140.17,-284.08 1152.76,-297.04"/>
<polygon fill="black" stroke="black" points="1150.02,-299.24 1159.5,-303.97 1155.04,-294.36 1150.02,-299.24"/>
</g>
<!-- node0 -->
<g id="node21" class="node">
<title>node0</title>
<polygon fill="none" stroke="black" points="1159.32,-212.5 1159.32,-286 1236.07,-286 1236.07,-212.5 1159.32,-212.5"/>
<text text-anchor="middle" x="1197.69" y="-268.7" font-family="Times,serif" font-size="14.00">w1</text>
<polyline fill="none" stroke="black" points="1159.32,-261.5 1236.07,-261.5"/>
<text text-anchor="middle" x="1197.69" y="-244.2" font-family="Times,serif" font-size="14.00">value: 2.86</text>
<polyline fill="none" stroke="black" points="1159.32,-237 1236.07,-237"/>
<text text-anchor="middle" x="1197.69" y="-219.7" font-family="Times,serif" font-size="14.00">grad: &#45;0.02</text>
</g>
<!-- node5_op&#45;&gt;node0 -->
<g id="edge20" class="edge">
<title>node5_op&#45;&gt;node0</title>
<path fill="none" stroke="black" d="M1123.74,-249.25C1130.73,-249.25 1139.17,-249.25 1147.79,-249.25"/>
<polygon fill="black" stroke="black" points="1147.61,-252.75 1157.61,-249.25 1147.61,-245.75 1147.61,-252.75"/>
</g>
</g>
</svg>
