<?xml version="1.0" encoding="UTF-8" standalone="no"?>
<!DOCTYPE svg PUBLIC "-//W3C//DTD SVG 1.1//EN"
 "http://www.w3.org/Graphics/SVG/1.1/DTD/svg11.dtd">
<!-- Generated by graphviz version 9.0.0 (20230911.1827)
 -->
<!-- Title: structs Pages: 1 -->
<svg width="855pt" height="362pt"
 viewBox="0.00 0.00 854.75 361.50" xmlns="http://www.w3.org/2000/svg" xmlns:xlink="http://www.w3.org/1999/xlink">
<g id="graph0" class="graph" transform="scale(1 1) rotate(0) translate(4 357.5)">
<title>structs</title>
<polygon fill="white" stroke="none" points="-4,4 -4,-357.5 850.75,-357.5 850.75,4 -4,4"/>
<!-- node9 -->
<g id="node1" class="node">
<title>node9</title>
<polygon fill="none" stroke="black" points="0,-106.75 0,-155.75 76.75,-155.75 76.75,-106.75 0,-106.75"/>
<text text-anchor="middle" x="38.38" y="-138.45" font-family="Times,serif" font-size="14.00">value: 0.00</text>
<polyline fill="none" stroke="black" points="0,-131.25 76.75,-131.25"/>
<text text-anchor="middle" x="38.38" y="-113.95" font-family="Times,serif" font-size="14.00">grad: 0.00</text>
</g>
<!-- node9_op -->
<g id="node2" class="node">
<title>node9_op</title>
<polygon fill="none" stroke="black" points="161.75,-155.75 112.75,-155.75 112.75,-106.75 161.75,-106.75 161.75,-155.75"/>
<text text-anchor="middle" x="137.25" y="-126.2" font-family="Times,serif" font-size="14.00">ReLU</text>
</g>
<!-- node9&#45;&gt;node9_op -->
<g id="edge1" class="edge">
<title>node9&#45;&gt;node9_op</title>
<path fill="none" stroke="black" d="M77.11,-131.25C85.01,-131.25 93.31,-131.25 101.12,-131.25"/>
<polygon fill="black" stroke="black" points="100.95,-134.75 110.95,-131.25 100.95,-127.75 100.95,-134.75"/>
</g>
<!-- node8 -->
<g id="node3" class="node">
<title>node8</title>
<polygon fill="none" stroke="black" points="197.75,-106.75 197.75,-155.75 279,-155.75 279,-106.75 197.75,-106.75"/>
<text text-anchor="middle" x="238.38" y="-138.45" font-family="Times,serif" font-size="14.00">value: &#45;1.62</text>
<polyline fill="none" stroke="black" points="197.75,-131.25 279,-131.25"/>
<text text-anchor="middle" x="238.38" y="-113.95" font-family="Times,serif" font-size="14.00">grad: 0.00</text>
</g>
<!-- node9_op&#45;&gt;node8 -->
<g id="edge2" class="edge">
<title>node9_op&#45;&gt;node8</title>
<path fill="none" stroke="black" d="M162.25,-131.25C169.49,-131.25 177.75,-131.25 186.06,-131.25"/>
<polygon fill="black" stroke="black" points="185.85,-134.75 195.85,-131.25 185.85,-127.75 185.85,-134.75"/>
</g>
<!-- node8_op -->
<g id="node4" class="node">
<title>node8_op</title>
<ellipse fill="none" stroke="black" cx="333" cy="-131.25" rx="18" ry="18"/>
<text text-anchor="middle" x="333" y="-126.2" font-family="Times,serif" font-size="14.00">+</text>
</g>
<!-- node8&#45;&gt;node8_op -->
<g id="edge3" class="edge">
<title>node8&#45;&gt;node8_op</title>
<path fill="none" stroke="black" d="M279.46,-131.25C287.45,-131.25 295.69,-131.25 303.21,-131.25"/>
<polygon fill="black" stroke="black" points="303.13,-134.75 313.13,-131.25 303.13,-127.75 303.13,-134.75"/>
</g>
<!-- node6 -->
<g id="node5" class="node">
<title>node6</title>
<polygon fill="none" stroke="black" points="387,-146.75 387,-195.75 468.25,-195.75 468.25,-146.75 387,-146.75"/>
<text text-anchor="middle" x="427.62" y="-178.45" font-family="Times,serif" font-size="14.00">value: &#45;1.62</text>
<polyline fill="none" stroke="black" points="387,-171.25 468.25,-171.25"/>
<text text-anchor="middle" x="427.62" y="-153.95" font-family="Times,serif" font-size="14.00">grad: 0.00</text>
</g>
<!-- node8_op&#45;&gt;node6 -->
<g id="edge4" class="edge">
<title>node8_op&#45;&gt;node6</title>
<path fill="none" stroke="black" d="M350.13,-138.22C357.59,-141.44 366.91,-145.46 376.44,-149.58"/>
<polygon fill="black" stroke="black" points="374.83,-152.7 385.4,-153.45 377.61,-146.27 374.83,-152.7"/>
</g>
<!-- node7 -->
<g id="node6" class="node">
<title>node7</title>
<polygon fill="none" stroke="black" points="389.25,-54.5 389.25,-128 466,-128 466,-54.5 389.25,-54.5"/>
<text text-anchor="middle" x="427.62" y="-110.7" font-family="Times,serif" font-size="14.00">b</text>
<polyline fill="none" stroke="black" points="389.25,-103.5 466,-103.5"/>
<text text-anchor="middle" x="427.62" y="-86.2" font-family="Times,serif" font-size="14.00">value: 0.00</text>
<polyline fill="none" stroke="black" points="389.25,-79 466,-79"/>
<text text-anchor="middle" x="427.62" y="-61.7" font-family="Times,serif" font-size="14.00">grad: 0.00</text>
</g>
<!-- node8_op&#45;&gt;node7 -->
<g id="edge5" class="edge">
<title>node8_op&#45;&gt;node7</title>
<path fill="none" stroke="black" d="M350.13,-124.28C358.06,-120.86 368.07,-116.54 378.22,-112.15"/>
<polygon fill="black" stroke="black" points="379.58,-115.38 387.37,-108.2 376.8,-108.95 379.58,-115.38"/>
</g>
<!-- node6_op -->
<g id="node7" class="node">
<title>node6_op</title>
<ellipse fill="none" stroke="black" cx="522.25" cy="-171.25" rx="18" ry="18"/>
<text text-anchor="middle" x="522.25" y="-166.2" font-family="Times,serif" font-size="14.00">+</text>
</g>
<!-- node6&#45;&gt;node6_op -->
<g id="edge6" class="edge">
<title>node6&#45;&gt;node6_op</title>
<path fill="none" stroke="black" d="M468.71,-171.25C476.7,-171.25 484.94,-171.25 492.46,-171.25"/>
<polygon fill="black" stroke="black" points="492.38,-174.75 502.38,-171.25 492.38,-167.75 492.38,-174.75"/>
</g>
<!-- node4 -->
<g id="node8" class="node">
<title>node4</title>
<polygon fill="none" stroke="black" points="576.25,-192.75 576.25,-241.75 657.5,-241.75 657.5,-192.75 576.25,-192.75"/>
<text text-anchor="middle" x="616.88" y="-224.45" font-family="Times,serif" font-size="14.00">value: &#45;0.78</text>
<polyline fill="none" stroke="black" points="576.25,-217.25 657.5,-217.25"/>
<text text-anchor="middle" x="616.88" y="-199.95" font-family="Times,serif" font-size="14.00">grad: 0.00</text>
</g>
<!-- node6_op&#45;&gt;node4 -->
<g id="edge7" class="edge">
<title>node6_op&#45;&gt;node4</title>
<path fill="none" stroke="black" d="M538.96,-179.05C546.55,-182.82 556.11,-187.57 565.9,-192.43"/>
<polygon fill="black" stroke="black" points="564.24,-195.51 574.75,-196.83 567.35,-189.24 564.24,-195.51"/>
</g>
<!-- node5 -->
<g id="node9" class="node">
<title>node5</title>
<polygon fill="none" stroke="black" points="576.25,-112.75 576.25,-161.75 657.5,-161.75 657.5,-112.75 576.25,-112.75"/>
<text text-anchor="middle" x="616.88" y="-144.45" font-family="Times,serif" font-size="14.00">value: &#45;0.85</text>
<polyline fill="none" stroke="black" points="576.25,-137.25 657.5,-137.25"/>
<text text-anchor="middle" x="616.88" y="-119.95" font-family="Times,serif" font-size="14.00">grad: 0.00</text>
</g>
<!-- node6_op&#45;&gt;node5 -->
<g id="edge8" class="edge">
<title>node6_op&#45;&gt;node5</title>
<path fill="none" stroke="black" d="M539.38,-165.33C546.77,-162.62 555.96,-159.24 565.38,-155.78"/>
<polygon fill="black" stroke="black" points="566.44,-159.13 574.62,-152.39 564.02,-152.55 566.44,-159.13"/>
</g>
<!-- node4_op -->
<g id="node13" class="node">
<title>node4_op</title>
<ellipse fill="none" stroke="black" cx="711.5" cy="-223.25" rx="18" ry="18"/>
<text text-anchor="middle" x="711.5" y="-218.2" font-family="Times,serif" font-size="14.00">*</text>
</g>
<!-- node4&#45;&gt;node4_op -->
<g id="edge12" class="edge">
<title>node4&#45;&gt;node4_op</title>
<path fill="none" stroke="black" d="M657.96,-219.85C665.95,-220.36 674.19,-220.9 681.71,-221.39"/>
<polygon fill="black" stroke="black" points="681.43,-224.87 691.64,-222.03 681.88,-217.89 681.43,-224.87"/>
</g>
<!-- node5_op -->
<g id="node10" class="node">
<title>node5_op</title>
<ellipse fill="none" stroke="black" cx="711.5" cy="-130.25" rx="18" ry="18"/>
<text text-anchor="middle" x="711.5" y="-125.2" font-family="Times,serif" font-size="14.00">*</text>
</g>
<!-- node5&#45;&gt;node5_op -->
<g id="edge9" class="edge">
<title>node5&#45;&gt;node5_op</title>
<path fill="none" stroke="black" d="M657.96,-134.22C665.95,-133.62 674.19,-132.99 681.71,-132.43"/>
<polygon fill="black" stroke="black" points="681.93,-135.92 691.64,-131.68 681.4,-128.94 681.93,-135.92"/>
</g>
<!-- node1 -->
<g id="node11" class="node">
<title>node1</title>
<polygon fill="none" stroke="black" points="767.75,-93.5 767.75,-167 844.5,-167 844.5,-93.5 767.75,-93.5"/>
<text text-anchor="middle" x="806.12" y="-149.7" font-family="Times,serif" font-size="14.00">x</text>
<polyline fill="none" stroke="black" points="767.75,-142.5 844.5,-142.5"/>
<text text-anchor="middle" x="806.12" y="-125.2" font-family="Times,serif" font-size="14.00">value: 1.00</text>
<polyline fill="none" stroke="black" points="767.75,-118 844.5,-118"/>
<text text-anchor="middle" x="806.12" y="-100.7" font-family="Times,serif" font-size="14.00">grad: 0.00</text>
</g>
<!-- node5_op&#45;&gt;node1 -->
<g id="edge10" class="edge">
<title>node5_op&#45;&gt;node1</title>
<path fill="none" stroke="black" d="M729.92,-130.25C737.45,-130.25 746.67,-130.25 756.04,-130.25"/>
<polygon fill="black" stroke="black" points="755.93,-133.75 765.93,-130.25 755.93,-126.75 755.93,-133.75"/>
</g>
<!-- node3 -->
<g id="node12" class="node">
<title>node3</title>
<polygon fill="none" stroke="black" points="765.5,-0.5 765.5,-74 846.75,-74 846.75,-0.5 765.5,-0.5"/>
<text text-anchor="middle" x="806.12" y="-56.7" font-family="Times,serif" font-size="14.00">w</text>
<polyline fill="none" stroke="black" points="765.5,-49.5 846.75,-49.5"/>
<text text-anchor="middle" x="806.12" y="-32.2" font-family="Times,serif" font-size="14.00">value: &#45;0.85</text>
<polyline fill="none" stroke="black" points="765.5,-25 846.75,-25"/>
<text text-anchor="middle" x="806.12" y="-7.7" font-family="Times,serif" font-size="14.00">grad: 0.00</text>
</g>
<!-- node5_op&#45;&gt;node3 -->
<g id="edge11" class="edge">
<title>node5_op&#45;&gt;node3</title>
<path fill="none" stroke="black" d="M724.99,-117.71C734.15,-108.51 747.19,-95.42 760.1,-82.46"/>
<polygon fill="black" stroke="black" points="762.44,-85.07 767.02,-75.51 757.48,-80.13 762.44,-85.07"/>
</g>
<!-- node0 -->
<g id="node14" class="node">
<title>node0</title>
<polygon fill="none" stroke="black" points="767.75,-279.5 767.75,-353 844.5,-353 844.5,-279.5 767.75,-279.5"/>
<text text-anchor="middle" x="806.12" y="-335.7" font-family="Times,serif" font-size="14.00">x</text>
<polyline fill="none" stroke="black" points="767.75,-328.5 844.5,-328.5"/>
<text text-anchor="middle" x="806.12" y="-311.2" font-family="Times,serif" font-size="14.00">value: 1.00</text>
<polyline fill="none" stroke="black" points="767.75,-304 844.5,-304"/>
<text text-anchor="middle" x="806.12" y="-286.7" font-family="Times,serif" font-size="14.00">grad: 0.00</text>
</g>
<!-- node4_op&#45;&gt;node0 -->
<g id="edge13" class="edge">
<title>node4_op&#45;&gt;node0</title>
<path fill="none" stroke="black" d="M724.99,-235.79C734.15,-244.99 747.19,-258.08 760.1,-271.04"/>
<polygon fill="black" stroke="black" points="757.48,-273.37 767.02,-277.99 762.44,-268.43 757.48,-273.37"/>
</g>
<!-- node2 -->
<g id="node15" class="node">
<title>node2</title>
<polygon fill="none" stroke="black" points="765.5,-186.5 765.5,-260 846.75,-260 846.75,-186.5 765.5,-186.5"/>
<text text-anchor="middle" x="806.12" y="-242.7" font-family="Times,serif" font-size="14.00">w</text>
<polyline fill="none" stroke="black" points="765.5,-235.5 846.75,-235.5"/>
<text text-anchor="middle" x="806.12" y="-218.2" font-family="Times,serif" font-size="14.00">value: &#45;0.78</text>
<polyline fill="none" stroke="black" points="765.5,-211 846.75,-211"/>
<text text-anchor="middle" x="806.12" y="-193.7" font-family="Times,serif" font-size="14.00">grad: 0.00</text>
</g>
<!-- node4_op&#45;&gt;node2 -->
<g id="edge14" class="edge">
<title>node4_op&#45;&gt;node2</title>
<path fill="none" stroke="black" d="M729.92,-223.25C736.85,-223.25 745.2,-223.25 753.79,-223.25"/>
<polygon fill="black" stroke="black" points="753.61,-226.75 763.61,-223.25 753.61,-219.75 753.61,-226.75"/>
</g>
</g>
</svg>
